<?xml version="1.0" encoding="utf-8"?>
<!-- Generator: Adobe Illustrator 26.0.1, SVG Export Plug-In . SVG Version: 6.00 Build 0)  -->
<svg version="1.1" xmlns="http://www.w3.org/2000/svg" xmlns:xlink="http://www.w3.org/1999/xlink" x="0px" y="0px"
	 viewBox="0 0 3000 2000" style="enable-background:new 0 0 3000 2000;" xml:space="preserve">
<style type="text/css">
	.st0{fill:#FFFFFF;}
	.st1{fill:#F6F5F5;}
	.st2{fill:#DADADA;}
	.st3{fill:#D3DFFF;}
	.st4{fill:#86A7FF;}
	.st5{fill:#ADC3FF;}
	.st6{fill:#E5ECFF;}
	.st7{fill:#F9B384;}
	.st8{fill:#102048;}
	.st9{fill:#EB5D60;}
	.st10{fill:#7D69ED;}
	.st11{fill:#E28B6D;}
	.st12{fill:#5B4DAD;}
	.st13{fill:#FBC343;}
	.st14{fill:#E49B31;}
	.st15{fill:#1F3C88;}
	.st16{fill:#3A6BEA;}
	.st17{opacity:0.3;fill:#102048;}
	.st18{fill:#AB4446;}
</style>
<g id="BACKGROUND">
	<rect class="st0" width="3000" height="2000"/>
</g>
<g id="OBJECTS">
	<g>
		<g>
			<g>
				<path class="st1" d="M2598.39,1003.61c-110.27-79.45-242.41-117.89-364.06-175.44c-117-55.34-200.25-144.27-304.93-217.54
					c-171.04-119.73-368.74-209.51-569.94-264.3c-203.45-55.4-451.97-86.09-637.42,36.72c-91.21,60.4-165.45,154.08-195.69,259.87
					c-35.99,125.88-0.77,254.5,16.49,380.3c14.03,102.22-51.6,158.61-128.92,216.7c-181.05,136-176.02,382.1-64.15,558.49h2330.11
					C2818.24,1547.74,2879.09,1205.86,2598.39,1003.61z"/>
			</g>
			<circle class="st1" cx="361.4" cy="1016.4" r="86.37"/>
			<circle class="st1" cx="2406.46" cy="587.77" r="127.66"/>
			
				<ellipse transform="matrix(0.1562 -0.9877 0.9877 0.1562 -461.0227 1037.8102)" class="st1" cx="376.93" cy="788.75" rx="38.26" ry="38.26"/>
			
				<ellipse transform="matrix(0.9239 -0.3827 0.3827 0.9239 -119.2474 1020.4237)" class="st1" cx="2505.38" cy="809.96" rx="38.26" ry="38.26"/>
			<path class="st2" d="M272.14,1792.47c-110.81-94.54-111.83-259.95-63.68-381.95c53.61-135.84,179.26-247.65,344.75-306.77
				c4.02-1.43,8.04-2.84,12.06-4.24l1.49,4.3c-4.01,1.39-8.02,2.81-12.03,4.23c-164.25,58.68-288.93,169.54-342.05,304.16
				c-47.55,120.49-46.7,283.73,62.41,376.82L272.14,1792.47z"/>
			<path class="st2" d="M2604.37,1797.76l-4.04-2.08c81.83-159.08,130.31-319.5,140.17-463.92
				c9.73-142.38-18.52-259.82-81.68-339.62c-57.32-72.41-171.38-147.37-389.27-93.24l-1.09-4.41
				c220.22-54.71,335.77,21.37,393.92,94.83c63.88,80.69,92.46,199.22,82.65,342.75
				C2735.13,1477.11,2686.49,1638.14,2604.37,1797.76z"/>
			<path class="st2" d="M782.55,526.05l-4.4-1.13c0.31-1.19,7.78-29.68,32.76-67.35c23.01-34.7,65.85-83.83,139.28-120.83
				c84.09-42.38,189.93-60.36,314.57-53.45c155.98,8.66,341.98,56.55,552.83,142.36l-1.71,4.21
				c-210.39-85.62-395.9-133.4-551.37-142.03c-123.86-6.88-228.91,10.95-312.28,52.97c-72.54,36.56-114.83,85.04-137.54,119.29
				C790.13,497.11,782.62,525.76,782.55,526.05z"/>
		</g>
		<g>
			<path class="st3" d="M2387.43,558.3v1143.66c0,15.95-12.95,28.91-28.91,28.91H733.12c-15.95,0-28.91-12.95-28.91-28.91V558.3
				c0-15.95,12.95-28.91,28.91-28.91h1625.4C2374.47,529.39,2387.43,542.35,2387.43,558.3z"/>
			<g>
				<g>
					<rect x="755.34" y="624.98" class="st0" width="1580.96" height="958.41"/>
					<path class="st4" d="M2338.57,1585.67H753.06V622.71h1585.5V1585.67z M757.61,1581.12h1576.41V627.25H757.61V1581.12z"/>
				</g>
				<g>
					<rect x="755.34" y="565.39" class="st0" width="1580.96" height="59.6"/>
					<path class="st4" d="M2338.57,627.25H753.06v-64.14h1585.5V627.25z M757.61,622.71h1576.41v-55.05H757.61V622.71z"/>
				</g>
			</g>
			<g>
				<path class="st4" d="M829.65,608.95c-7.59,0-13.77-6.18-13.77-13.77c0-7.59,6.18-13.77,13.77-13.77
					c7.59,0,13.77,6.18,13.77,13.77C843.42,602.77,837.24,608.95,829.65,608.95z M829.65,585.96c-5.08,0-9.22,4.14-9.22,9.22
					c0,5.08,4.14,9.22,9.22,9.22c5.09,0,9.22-4.14,9.22-9.22C838.88,590.1,834.74,585.96,829.65,585.96z"/>
				<path class="st4" d="M875.63,608.95c-7.59,0-13.77-6.18-13.77-13.77c0-7.59,6.18-13.77,13.77-13.77s13.77,6.18,13.77,13.77
					C889.4,602.77,883.22,608.95,875.63,608.95z M875.63,585.96c-5.08,0-9.22,4.14-9.22,9.22c0,5.08,4.14,9.22,9.22,9.22
					s9.22-4.14,9.22-9.22C884.85,590.1,880.72,585.96,875.63,585.96z"/>
				<path class="st4" d="M921.61,608.95c-7.59,0-13.77-6.18-13.77-13.77c0-7.59,6.18-13.77,13.77-13.77s13.77,6.18,13.77,13.77
					C935.38,602.77,929.21,608.95,921.61,608.95z M921.61,585.96c-5.08,0-9.22,4.14-9.22,9.22c0,5.08,4.14,9.22,9.22,9.22
					s9.22-4.14,9.22-9.22C930.84,590.1,926.7,585.96,921.61,585.96z"/>
			</g>
			<g>
				<rect x="621.22" y="1712.83" class="st3" width="1849.19" height="85.76"/>
				<path class="st4" d="M2472.97,1801.14H618.67v-90.86h1854.3V1801.14z M623.77,1796.04h1844.09v-80.65H623.77V1796.04z"/>
			</g>
			<g>
				<path class="st0" d="M1627.23,1672.1H1464.4c-10.16,0-18.47-8.31-18.47-18.47v-11.03c0-10.16,8.31-18.47,18.47-18.47h162.83
					c10.16,0,18.47,8.31,18.47,18.47v11.03C1645.7,1663.79,1637.39,1672.1,1627.23,1672.1z"/>
				<path class="st4" d="M1624.71,1674.37h-157.79c-12.83,0-23.26-10.44-23.26-23.26v-5.99c0-12.83,10.44-23.26,23.26-23.26h157.79
					c12.83,0,23.26,10.44,23.26,23.26v5.99C1647.98,1663.94,1637.54,1674.37,1624.71,1674.37z M1466.92,1626.39
					c-10.32,0-18.72,8.4-18.72,18.72v5.99c0,10.32,8.4,18.72,18.72,18.72h157.79c10.32,0,18.72-8.4,18.72-18.72v-5.99
					c0-10.32-8.4-18.72-18.72-18.72H1466.92z"/>
			</g>
			<g>
				<path class="st4" d="M2112.18,1047.54H979.45c-40.93,0-74.24-33.3-74.24-74.24v-4.96c0-40.93,33.3-74.24,74.24-74.24h1132.72
					c40.94,0,74.24,33.3,74.24,74.24v4.96C2186.41,1014.24,2153.11,1047.54,2112.18,1047.54z M979.45,898.65
					c-38.43,0-69.69,31.26-69.69,69.69v4.96c0,38.43,31.26,69.69,69.69,69.69h1132.72c38.43,0,69.69-31.26,69.69-69.69v-4.96
					c0-38.43-31.26-69.69-69.69-69.69H979.45z"/>
				<path class="st3" d="M1113.92,998.56H976.95c-12.57,0-22.85-10.28-22.85-22.85v-9.77c0-12.57,10.28-22.85,22.85-22.85h136.97
					c12.57,0,22.85,10.28,22.85,22.85v9.77C1136.77,988.27,1126.49,998.56,1113.92,998.56z"/>
				<path class="st3" d="M1335.85,998.56h-119.73c-12.73,0-23.15-10.42-23.15-23.15v-9.17c0-12.73,10.42-23.15,23.15-23.15h119.73
					c12.73,0,23.15,10.42,23.15,23.15v9.17C1359,988.14,1348.58,998.56,1335.85,998.56z"/>
				<path class="st3" d="M1591.02,998.56h-161.33c-13.42,0-24.41-10.98-24.41-24.41v-6.66c0-13.42,10.98-24.41,24.41-24.41h161.33
					c13.42,0,24.41,10.98,24.41,24.41v6.66C1615.43,987.57,1604.44,998.56,1591.02,998.56z"/>
				<path class="st3" d="M1945.06,998.26h-239.73c-13.42,0-24.41-10.98-24.41-24.41v-6.66c0-13.42,10.98-24.41,24.41-24.41h239.73
					c13.42,0,24.41,10.98,24.41,24.41v6.66C1969.47,987.27,1958.49,998.26,1945.06,998.26z"/>
			</g>
			<rect x="1354.91" y="778.9" class="st4" width="381.82" height="39.98"/>
			<g>
				<rect x="1417.93" y="1290.92" class="st5" width="67.65" height="129.54"/>
				<rect x="1557.46" y="1213.86" class="st3" width="67.65" height="206.6"/>
				<rect x="1697" y="1168.5" class="st5" width="67.65" height="251.97"/>
				<rect x="1836.54" y="1278.14" class="st3" width="67.65" height="142.33"/>
				<rect x="1976.08" y="1195.92" class="st5" width="67.65" height="224.55"/>
				<rect x="2115.61" y="1110.61" class="st3" width="67.65" height="309.85"/>
			</g>
			<g>
				<rect x="887.35" y="1102.74" class="st6" width="381.82" height="24.38"/>
				<rect x="887.35" y="1171.19" class="st6" width="381.82" height="249.28"/>
				<g>
					<path class="st4" d="M1095.55,1263.85c-14.38-5.68-29.17-1.22-39.72,9.1c-9.62,9.4-10.97,22.69-15.5,34.55
						c9.35,2.55,17.76,8.09,27.95,6.5c13.24-2.06,13.59-14.42,21.09-22.83c6.43-7.21,14.13-11.86,23.33-13.09
						C1108.76,1272.25,1103.94,1267.16,1095.55,1263.85z"/>
					<path class="st4" d="M1203.69,1250.92c-13.02,2.83-26.7,7.46-35.99,16.95c-7.99,8.16-7.7,22.37-13.5,30.95
						c6.55,4.36,13.93,6.4,21.11,2.52c7.03-3.8,11.3-12.35,18.88-16.07c6.09-3,14.85-4.89,21.47-6.08c1.53-0.27,3.09-0.45,4.64-0.66
						v-30.3C1214.73,1248.86,1209.19,1249.72,1203.69,1250.92z"/>
					<path class="st5" d="M1215.66,1279.19c-6.63,1.19-15.38,3.08-21.47,6.08c-7.58,3.73-11.85,12.27-18.88,16.07
						c-7.18,3.88-14.56,1.85-21.11-2.52c-2.58-1.72-5.04-3.79-7.3-6.02c-8.96-8.83-11.76-13.82-25.94-14.97
						c-2.89-0.23-5.62-0.12-8.26,0.24c-9.2,1.24-16.9,5.88-23.33,13.09c-7.5,8.42-7.85,20.77-21.09,22.83
						c-10.19,1.59-18.6-3.95-27.95-6.5c-3.73-1.02-7.61-1.58-11.81-1c-9.86,1.36-16.1,7.28-22.97,11.77
						c-4.79,3.13-9.88,5.57-16.73,5.26c-15.29-0.67-35-9.48-52.61-10.05v68.08h284.08v-103.04
						C1218.74,1278.74,1217.18,1278.91,1215.66,1279.19z"/>
					<path class="st4" d="M1005.55,1318.26c-1.12-0.98-2.18-2.03-3.13-3.21c-7.03-8.73-7.6-19.81-15.38-27.99
						c-15.15-15.93-35.84-9.63-50.82,3.92v22.5c17.61,0.57,37.32,9.37,52.61,10.05C995.67,1323.83,1000.76,1321.39,1005.55,1318.26z
						"/>
				</g>
			</g>
		</g>
		<g>
			<g>
				<path class="st7" d="M595.36,1156.17l-72.59,14.23l16.57-106.75l44.64,0.91c-0.28,1.88-0.57,3.7-0.74,5.58
					c-1.65,14.35-0.8,28.75,1.02,41.62C587.9,1137.04,595.36,1156.17,595.36,1156.17z"/>
				<path class="st8" d="M584.26,1111.76c-27.9-13.15-38.26-40.77-38.26-40.77l37.24-0.85
					C581.58,1084.49,582.44,1098.89,584.26,1111.76z"/>
				<path class="st7" d="M599.61,1002.9c2.85,9.96,18.98,73.07-10.44,80.18c-29.42,7.12-59.78-19.93-59.78-19.93l9.96-60.73
					l42.7-12.81L599.61,1002.9z"/>
				<path class="st9" d="M560.65,1037.24c0,0,7.65-50.47,38.96-34.34c-1.12-0.58-2.74-5.61-3.44-6.76
					c-3.16-5.18-7.22-9.88-12.13-13.47c-17.82-13.06-47.87-8.31-62.24,6.71c-14.15,14.79-14.59,41.07-7.3,60.18
					c1.18,3.09,2.67,6.06,4.46,8.84c1.63,2.53,3.55,4.63,5.72,6.71c1.86,1.79,15.83,12.79,15.98,4.33
					C541.02,1048.8,560.65,1037.24,560.65,1037.24z"/>
				
					<ellipse transform="matrix(0.7741 -0.6331 0.6331 0.7741 -530.4147 587.4005)" class="st7" cx="557.77" cy="1036.84" rx="12.46" ry="15.43"/>
				<ellipse class="st7" cx="605.54" cy="1038.75" rx="6.63" ry="7.2"/>
			</g>
			<g>
				<g>
					<path class="st8" d="M510.42,1567.98l-86.35,37.01c0,0,71.17,181.24,92.04,192.63c20.88,11.39,10.44-89.2,24.67-119.56
						l18.03-71.17L510.42,1567.98z"/>
					
						<rect x="517.49" y="1657.96" transform="matrix(0.0694 -0.9976 0.9976 0.0694 -1186.8715 2081.2388)" class="st0" width="9.1" height="37.57"/>
				</g>
				<path class="st10" d="M488.59,1554.69l52.19,123.36c0,0,203.07-106.28,253.36-203.07l-79.71-104.38L488.59,1554.69z"/>
				<path class="st8" d="M760.93,1654.33c0,0,94.89,3.8,138.54-71.17l-96.79-14.23L760.93,1654.33z"/>
				<g>
					<polygon class="st7" points="909.35,1667.28 802.31,1705.1 793.67,1674.55 777.99,1619.23 867.22,1577.01 873.49,1590.46 					
						"/>
					<polygon class="st8" points="1044.65,1798.56 927.46,1706.04 909.37,1667.3 802.32,1705.08 828.78,1798.56 					"/>
					
						<rect x="895.77" y="1716.92" transform="matrix(0.6173 -0.7867 0.7867 0.6173 -1004.0217 1378.9982)" class="st0" width="39.2" height="9.09"/>
					<polygon class="st11" points="873.49,1590.46 793.67,1674.55 777.99,1619.23 867.22,1577.01 					"/>
				</g>
				<path class="st10" d="M899.49,1583.14c-50.46,12.73-96.59,36.5-138.55,71.18l-72.14-189.78c0,0-145.55,138.73-232.46,115.78
					c-82.59-21.82-46.55-158.5-46.55-158.5c113.41-79.41,293.82-186.05,372.87-101.59c0.41,0.36,0.73,0.68,1.05,1.05
					c16.18,17.77,34.46,52.91,51.64,91.82C869.63,1490.59,899.49,1583.14,899.49,1583.14z"/>
				<path class="st12" d="M835.35,1413.09c-78.64,18.5-159.55-68.86-159.55-68.86l81.27-26.68l25.59,2.68
					c0.41,0.36,0.73,0.68,1.05,1.05C799.9,1339.05,818.17,1374.18,835.35,1413.09z"/>
				<path class="st12" d="M758.82,1655.13l-70.92-186.56c-15.38,14.61-99.06,91.18-187.28,114.43l-1.16-4.39
					c96.03-25.31,186.83-114.78,187.74-115.68l2.48-2.47l73.38,193.05L758.82,1655.13z"/>
			</g>
			<g>
				<path class="st13" d="M526.76,1116.54l-31.86,103l-42.86,138.55c0,0-31.27,11.23-58.86,7.73
					c-24.36-3.09-45.86-17.73-40.05-61.96C365.93,1206.36,526.76,1116.54,526.76,1116.54z"/>
				<path class="st14" d="M494.89,1219.54l-42.86,138.55c0,0-31.27,11.23-58.86,7.73C416.3,1223.59,492.85,1163,492.85,1163
					L494.89,1219.54z"/>
				<polygon class="st13" points="838.49,1218.5 814.76,1308.86 734.67,1233.32 766.44,1180.04 809.4,1202.95 				"/>
				<polygon class="st7" points="766.62,1180.14 797.02,1131.56 858.43,1105.38 838.31,1218.68 				"/>
				<g>
					<path class="st15" d="M1064.99,1087.18c-16.14-3.86-30.68-3.23-43.82,1.59c-8.68,3.18-16.77,8.23-24.23,15.05l-29.68-68.82
						c10.32-1.82,19.73-4.91,28.23-9.41c12.32-6.5,22.59-15.91,30.59-28.68L1064.99,1087.18z"/>
					<polygon class="st15" points="997.02,1103.76 967.36,1034.95 530.37,1242.39 546.16,1279.02 997.02,1103.76 967.36,1034.95 
											"/>
					<path class="st8" d="M1064.99,1087.18c-16.14-3.86-30.68-3.23-43.82,1.59l-25.68-63.18c12.32-6.5,22.59-15.91,30.59-28.68
						L1064.99,1087.18z"/>
					
						<ellipse transform="matrix(0.7071 -0.7071 0.7071 0.7071 -314.2217 1157.6226)" class="st15" cx="1240.26" cy="958.11" rx="233.45" ry="233.44"/>
					
						<ellipse transform="matrix(0.7071 -0.7071 0.7071 0.7071 -314.2216 1157.6226)" class="st0" cx="1240.26" cy="958.11" rx="194.49" ry="194.49"/>
					<g>
						<path class="st4" d="M1062.97,878.19h354.55c-0.77-1.7-1.53-3.41-2.34-5.08h-349.78
							C1064.57,874.8,1063.74,876.48,1062.97,878.19z"/>
						<path class="st4" d="M1416.93,1039.4h-353.28c0.78,1.7,1.54,3.41,2.36,5.08h348.47
							C1415.31,1042.8,1416.14,1041.11,1416.93,1039.4z"/>
						<path class="st3" d="M1095.02,960.77v-3.95c0-15.95-13.05-29-29-29h-17.84c-3.22,20.26-3.27,41.16,0.18,61.96h17.66
							C1081.97,989.77,1095.02,976.72,1095.02,960.77z"/>
						<path class="st3" d="M1187.16,927.82c-16.16,0-29.39,13.22-29.39,29.39v3.18c0,16.16,13.22,29.39,29.39,29.39h126.67
							c16.16,0,29.39-13.22,29.39-29.39v-3.18c0-16.16-13.22-29.39-29.39-29.39H1187.16z"/>
						<path class="st3" d="M1432.42,927.82h-6.53c-17.04,0-30.98,13.94-30.98,30.98c0,17.04,13.94,30.98,30.98,30.98h6.24
							C1435.49,969.53,1435.71,948.63,1432.42,927.82z"/>
					</g>
				</g>
				<path class="st7" d="M838.49,1218.5l-29.09-15.55l17.73-38.5c0,0,24.68-44.59,37-42.68
					C876.44,1123.63,838.49,1218.5,838.49,1218.5z"/>
				<path class="st13" d="M734.69,1233.31l-6.04,10.14c-12.01-16.51-38.49-51.7-71.79-79.65v0
					c-29.95-25.11-70.58-64.16-106.05-58.75c-94.97,14.4-140.99,316.78-140.99,316.78l245.73-88.95l55.05,42.89
					c11.97,9.33,27.03,13.79,42.15,12.48h0c25.4-2.19,46.67-20.15,53.08-44.83l8.96-34.53L734.69,1233.31z"/>
				
					<rect x="619.93" y="1258.8" transform="matrix(0.6632 -0.7484 0.7484 0.6632 -765.8901 904.5674)" class="st14" width="4.54" height="89.08"/>
				
					<rect x="739.82" y="1228.97" transform="matrix(0.8167 -0.5771 0.5771 0.8167 -593.2832 659.9722)" class="st14" width="4.54" height="69.58"/>
			</g>
		</g>
		<g>
			<g>
				<path class="st11" d="M1979.11,646.46c0,0-11.49,35.98-40.48,51.97s-67.47,32.98-54.47,38.48c12.99,5.5,47.73,2,47.73,2
					s-67.22,51.97-48.23,57.47c18.99,5.5,64.97-31.98,64.97-31.98s-6.25,13.99,3.25,16.99c9.5,3,27.74-0.5,27.74-0.5
					s-2.5,10,16.49,7.5c18.99-2.5,68.47-62.47,68.47-62.47l3.5-54.97L1979.11,646.46z"/>
				<path class="st16" d="M1920.63,337.61c0,0,74.96-19.49,187.41,50.98c101.19,63.41,107.95,125.94,59.97,203.9
					c-47.98,77.96-103.45,133.44-103.45,133.44l-85.46-79.46l74.96-116.94L1920.63,337.61z"/>
				<path class="st16" d="M1894.15,349.61c0,0-105.95,56.97-159.92,179.91h369.82L2002.09,367.6L1894.15,349.61z"/>
				<path class="st11" d="M1789.82,529.02c0,0,36.36,6.37,49.1,0c12.74-6.37-27.74-24.74-62.59-33.36
					c-34.86-8.62-75.71-23.99-109.45,23.99c-33.73,47.98-30.36,51.35-19.49,50.6c10.87-0.75,36.73-32.98,36.73-32.98
					s-27.74,34.86-14.62,38.61c13.12,3.75,44.6-43.85,44.6-43.85s-26.99,38.61-13.12,43.1c13.87,4.5,43.85-42.73,43.85-42.73
					s-30.36,47.6-11.99,46.48c11.95-0.73,25.65-21.62,33.76-36.12C1771.32,534.32,1780.16,529.02,1789.82,529.02L1789.82,529.02z"/>
				<path class="st8" d="M1920.02,401.95c-14.4,0-25.77-6.18-25.99-6.3l2.22-3.97c1.5,0.83,37.09,20.06,60.05-15.72l3.83,2.45
					C1948.19,397.01,1932.89,401.95,1920.02,401.95z"/>
				<polygon class="st8" points="1981.01,647.7 1977.2,645.22 2073.88,496.69 2036.8,438.83 2040.62,436.38 2079.3,496.7 				"/>
			</g>
			<g>
				<path class="st11" d="M1941.82,354.33c-6.1,21.74-35.19,26.31-48.59,8.14l-3.57-4.81l-23.08-31.27l23.78-30.92l2.28-2.98
					l5.41,4.02l3.92,2.93l41.54,31.07C1944.35,340.14,1943.61,347.98,1941.82,354.33z"/>
				<path class="st8" d="M1889.65,357.66l-23.08-31.27l23.78-30.92l7.69,1.04l3.67,0.5c0,0,0.1,0.84,0.25,2.43
					C1902.56,307.48,1903.35,334.08,1889.65,357.66z"/>
				<path class="st11" d="M1800.81,277.17c0,0,51.48,92.45,88.52,53.77c28.13-29.37,8.27-69.9,8.27-69.9l-27.3-26.47l-60.8,18.2
					L1800.81,277.17z"/>
				<path class="st13" d="M1880.22,281.72c0,0-17.37-27.61-36.3-14.58c-18.92,13.03-41.16,48.08-67.11,27.82
					c-18.07-14.11-5.79-54.19,18.1-50.77c0,0,26.37-50.57,71.66-37.23c45.29,13.34,27.92,40.33,52.12,44.36
					c24.2,4.03,102.55,9.66,89.53,92.49c0,0-33.52-8.95-61.51-5.82c-34.98,3.91-58.63-53.78-58.63-53.78
					C1885.81,284.82,1880.22,281.72,1880.22,281.72z"/>
				<ellipse class="st11" cx="1884.57" cy="279.55" rx="13.65" ry="17.68"/>
			</g>
		</g>
		<rect x="123.52" y="1795" class="st8" width="2740.96" height="6.82"/>
		<g>
			<g>
				<rect x="2228.11" y="1549.37" class="st15" width="187.5" height="109.09"/>
				<polygon class="st8" points="2437.43,1798.2 2537.34,1848.38 2503.35,1718.45 2459.41,1710 2413.4,1726.44 				"/>
				<path class="st16" d="M2459.43,1710.01l-22,88.18c0,0-94.87-12.5-187.82-33.14c-42.86-9.45-85.32-20.68-117.87-33.23
					c-17.14-6.59-31.55-13.55-41.82-20.77c-72.23-50.91-46.46-168.14,76.05-148.09c47.46,7.77,98.64,28.91,144.82,52.86
					c21.05,10.86,41,22.36,59.09,33.41C2422.7,1681.42,2459.43,1710.01,2459.43,1710.01z"/>
				<path class="st17" d="M2369.88,1649.23l-120.28,115.82c-42.86-9.45-85.32-20.68-117.87-33.23l179.05-116
					C2331.84,1626.69,2351.79,1638.19,2369.88,1649.23z"/>
				<g>
					<polygon class="st8" points="2122.54,1725.94 2001.59,1796.16 2179.58,1795.42 2191,1727.94 					"/>
					<polygon class="st7" points="2228.49,1710.45 2191,1727.94 2179.58,1795.42 2182.01,1795.41 2256.47,1796.41 2282.46,1763.93 
											"/>
				</g>
				<path class="st16" d="M2228.49,1710.45c0,0,141.93-138.93,264.87-171.92c113.98-30.58,147.93,83.96,83.96,140.93
					c-63.97,56.97-320.85,116.94-320.85,116.94L2228.49,1710.45z"/>
				<path class="st8" d="M2257.03,1798.61l-1.11-4.4c88.15-22.26,178.73-46.43,244.08-72.32l1.68,4.23
					C2436.08,1752.1,2345.33,1776.31,2257.03,1798.61z"/>
			</g>
			<g>
				<path class="st8" d="M2314.25,1163.94c-12.77,1.04-24.81,4.18-35.44,11.74c-8.87,6.31-15.67,15.05-20.04,25
					c-6.77,15.43-5.2,32.66-10.4,48.46c-5,15.22-17.24,23.07-28.65,33.24c-10.98,9.79-18.88,25.99-14.96,40.86
					c1.09,4.13,3.09,7.95,5.75,11.28c2.04,2.55,8.26,9.9,11.77,9.92c0,0,193.04,0.85,193.04,0.85s35.88-33.6-5.41-72.89
					c-11.46-10.91-24.29-22.11-30.12-37.43c-3.6-9.46-5.41-19.44-8.12-29.15c-3.46-12.39-11.08-25.03-21.36-32.89
					C2339.97,1165.03,2326.99,1162.9,2314.25,1163.94z"/>
				<path class="st8" d="M2298.02,1175.62c0,0-32.17-24.49-0.28-35.59c24.39-8.49,47.26,1.14,32.75,32.74L2298.02,1175.62z"/>
			</g>
			<g>
				<path class="st9" d="M2306.45,1298.4c0,0-181.41,30.74-217.4,155.92s182.99,133.3,182.99,133.3s215.06-7.36,253.3-41.85
					s57.72-209.15-197.9-245.88L2306.45,1298.4z"/>
				<path class="st18" d="M2318.14,1366.87c-1.18,0-2.35-0.05-3.52-0.14c-13.04-1.06-23.36-7.8-29.07-18.98l4.05-2.07
					c4.96,9.72,13.98,15.59,25.39,16.51c13.97,1.18,29.04-5.32,36.67-15.69l3.66,2.69
					C2347.45,1359.9,2332.56,1366.87,2318.14,1366.87z"/>
				
					<rect x="2197.14" y="1422.17" transform="matrix(0.6287 -0.7777 0.7777 0.6287 -336.7084 2261.1924)" class="st18" width="4.55" height="122.01"/>
				
					<rect x="2379.91" y="1481.85" transform="matrix(0.7561 -0.6545 0.6545 0.7561 -376.868 1957.0416)" class="st18" width="114.4" height="4.54"/>
			</g>
			<path class="st0" d="M2410.86,1596.01h-188.82c-6.35,0-11.49-5.15-11.49-11.49v-131.68c0-6.35,5.15-11.49,11.49-11.49h188.82
				c6.35,0,11.49,5.15,11.49,11.49v131.68C2422.35,1590.86,2417.21,1596.01,2410.86,1596.01z"/>
			<g>
				<path class="st7" d="M2296.49,1259.63l-4.93,46.97c-0.95,9.01,2.62,17.89,9.48,23.58l0,0c9.37,7.78,22.72,7.86,32.18,0.21
					l0.43-0.35c7.19-5.82,10.86-15.13,9.65-24.46l-6.1-46.77L2296.49,1259.63z"/>
				<path class="st8" d="M2295.6,1269.29c14.38,28.19,30.61,28.76,42.99,0.71l-25.48-3.27L2295.6,1269.29z"/>
				<ellipse class="st7" cx="2317.47" cy="1234.55" rx="34.38" ry="44.99"/>
				<path class="st8" d="M2357.53,1227.15c0,0-34.45-0.57-45.84-28.47c0,0-18.51,6.55-23.35,30.47l-13.1,4.56l-0.28-37.58
					l29.04-18.51l25.91,0.57l22.78,19.08L2357.53,1227.15z"/>
				<path class="st7" d="M2293.16,1230.93c3.84,7.4,1.85,16.04-4.43,19.29c-6.28,3.26-14.48-0.1-18.32-7.5
					c-3.84-7.4-1.85-16.04,4.43-19.29C2281.12,1220.18,2289.33,1223.53,2293.16,1230.93z"/>
				<path class="st7" d="M2343.02,1230.93c-3.84,7.4-1.85,16.04,4.43,19.29c6.28,3.26,14.48-0.1,18.32-7.5s1.85-16.04-4.43-19.29
					C2355.06,1220.18,2346.86,1223.53,2343.02,1230.93z"/>
			</g>
		</g>
	</g>
</g>
</svg>
