<?xml version="1.0" ?><svg enable-background="new 0 0 64 64" height="64px" id="Layer_1" version="1.1" viewBox="0 0 64 64" width="64px" xml:space="preserve" xmlns="http://www.w3.org/2000/svg" xmlns:xlink="http://www.w3.org/1999/xlink"><circle cx="32" cy="32" fill="#E0995E" r="32"/><g opacity="0.2"><path d="M32,12c-0.829,0-1.5,0.671-1.5,1.5v8.167c0,0.829,0.671,1.5,1.5,1.5c0.829,0,1.5-0.671,1.5-1.5V13.5   C33.5,12.671,32.829,12,32,12z" fill="#231F20"/><path d="M21.5,33.5c0-0.829-0.671-1.5-1.5-1.5h-8c-0.829,0-1.5,0.671-1.5,1.5S11.171,35,12,35h8   C20.829,35,21.5,34.329,21.5,33.5z" fill="#231F20"/><path d="M32,44c-0.829,0-1.5,0.671-1.5,1.5v8c0,0.829,0.671,1.5,1.5,1.5c0.829,0,1.5-0.671,1.5-1.5v-8   C33.5,44.671,32.829,44,32,44z" fill="#231F20"/><path d="M39.299,43.142c-0.413-0.716-1.33-0.962-2.049-0.549c-0.717,0.415-0.963,1.332-0.549,2.049l4,6.928   c0.278,0.481,0.782,0.75,1.3,0.75c0.254,0,0.512-0.065,0.749-0.202c0.717-0.414,0.963-1.331,0.549-2.049L39.299,43.142z" fill="#231F20"/><path d="M23.299,15.43c-0.414-0.718-1.33-0.963-2.049-0.549c-0.717,0.414-0.963,1.332-0.549,2.049l4.083,7.072   c0.278,0.481,0.782,0.75,1.3,0.75c0.254,0,0.512-0.065,0.748-0.202c0.717-0.414,0.963-1.332,0.549-2.049L23.299,15.43z" fill="#231F20"/><path d="M40.949,28.333c0.278,0.481,0.782,0.75,1.3,0.75c0.254,0,0.512-0.065,0.749-0.202l7.072-4.083   c0.717-0.414,0.963-1.331,0.549-2.049c-0.414-0.718-1.33-0.963-2.049-0.549l-7.072,4.083   C40.781,26.699,40.535,27.616,40.949,28.333z" fill="#231F20"/><path d="M52,32h-8.167c-0.829,0-1.5,0.671-1.5,1.5s0.671,1.5,1.5,1.5H52c0.829,0,1.5-0.671,1.5-1.5S52.829,32,52,32   z" fill="#231F20"/><path d="M50.07,42.201l-6.928-4c-0.718-0.414-1.634-0.167-2.049,0.549c-0.414,0.717-0.168,1.635,0.549,2.049   l6.928,4C48.807,44.936,49.064,45,49.319,45c0.519,0,1.023-0.269,1.3-0.75C51.034,43.533,50.788,42.615,50.07,42.201z" fill="#231F20"/><path d="M13.93,24.799l7.072,4.083c0.236,0.137,0.494,0.202,0.748,0.202c0.519,0,1.022-0.269,1.3-0.75   c0.414-0.717,0.168-1.635-0.549-2.049l-7.072-4.083c-0.717-0.415-1.635-0.169-2.049,0.549   C12.966,23.467,13.212,24.385,13.93,24.799z" fill="#231F20"/><path d="M22.907,38.75c-0.414-0.716-1.33-0.963-2.049-0.549l-6.928,4c-0.717,0.414-0.963,1.332-0.549,2.049   c0.278,0.481,0.782,0.75,1.3,0.75c0.254,0,0.512-0.065,0.749-0.202l6.928-4C23.075,40.385,23.321,39.467,22.907,38.75z" fill="#231F20"/><path d="M26.75,42.593c-0.718-0.413-1.635-0.167-2.049,0.549l-4,6.928c-0.415,0.717-0.169,1.635,0.549,2.049   c0.236,0.137,0.494,0.202,0.748,0.202c0.519,0,1.023-0.269,1.3-0.75l4-6.928C27.713,43.925,27.467,43.007,26.75,42.593z" fill="#231F20"/><path d="M37.166,24.551c0.236,0.137,0.494,0.202,0.749,0.202c0.519,0,1.022-0.269,1.3-0.75l4.083-7.072   c0.415-0.717,0.168-1.635-0.549-2.049c-0.718-0.415-1.634-0.169-2.049,0.549l-4.083,7.072   C36.203,23.219,36.449,24.137,37.166,24.551z" fill="#231F20"/></g><g><path d="M32,10c-0.829,0-1.5,0.671-1.5,1.5v8.167c0,0.829,0.671,1.5,1.5,1.5c0.829,0,1.5-0.671,1.5-1.5V11.5   C33.5,10.671,32.829,10,32,10z" fill="#FFFFFF"/><path d="M21.5,31.5c0-0.829-0.671-1.5-1.5-1.5h-8c-0.829,0-1.5,0.671-1.5,1.5c0,0.829,0.671,1.5,1.5,1.5h8   C20.829,33,21.5,32.329,21.5,31.5z" fill="#FFFFFF"/><path d="M32,42c-0.829,0-1.5,0.671-1.5,1.5v8c0,0.829,0.671,1.5,1.5,1.5c0.829,0,1.5-0.671,1.5-1.5v-8   C33.5,42.671,32.829,42,32,42z" fill="#FFFFFF"/><path d="M39.299,41.142c-0.413-0.716-1.33-0.962-2.049-0.549c-0.717,0.415-0.963,1.332-0.549,2.049l4,6.928   c0.278,0.481,0.782,0.75,1.3,0.75c0.254,0,0.512-0.065,0.749-0.202c0.717-0.414,0.963-1.331,0.549-2.049L39.299,41.142z" fill="#FFFFFF"/><path d="M23.299,13.43c-0.414-0.718-1.33-0.963-2.049-0.549c-0.717,0.414-0.963,1.332-0.549,2.049l4.083,7.072   c0.278,0.481,0.782,0.75,1.3,0.75c0.254,0,0.512-0.065,0.748-0.202c0.717-0.414,0.963-1.332,0.549-2.049L23.299,13.43z" fill="#FFFFFF"/><path d="M40.949,26.333c0.278,0.481,0.782,0.75,1.3,0.75c0.254,0,0.512-0.065,0.749-0.202l7.072-4.083   c0.717-0.414,0.963-1.331,0.549-2.049c-0.414-0.718-1.33-0.963-2.049-0.549l-7.072,4.083   C40.781,24.699,40.535,25.616,40.949,26.333z" fill="#FFFFFF"/><path d="M52,30h-8.167c-0.829,0-1.5,0.671-1.5,1.5c0,0.829,0.671,1.5,1.5,1.5H52c0.829,0,1.5-0.671,1.5-1.5   C53.5,30.671,52.829,30,52,30z" fill="#FFFFFF"/><path d="M50.07,40.201l-6.928-4c-0.718-0.414-1.634-0.167-2.049,0.549c-0.414,0.717-0.168,1.635,0.549,2.049   l6.928,4C48.807,42.936,49.064,43,49.319,43c0.519,0,1.023-0.269,1.3-0.75C51.034,41.533,50.788,40.615,50.07,40.201z" fill="#FFFFFF"/><path d="M13.93,22.799l7.072,4.083c0.236,0.137,0.494,0.202,0.748,0.202c0.519,0,1.022-0.269,1.3-0.75   c0.414-0.717,0.168-1.635-0.549-2.049l-7.072-4.083c-0.717-0.415-1.635-0.169-2.049,0.549   C12.966,21.467,13.212,22.385,13.93,22.799z" fill="#FFFFFF"/><path d="M22.907,36.75c-0.414-0.716-1.33-0.963-2.049-0.549l-6.928,4c-0.717,0.414-0.963,1.332-0.549,2.049   c0.278,0.481,0.782,0.75,1.3,0.75c0.254,0,0.512-0.065,0.749-0.202l6.928-4C23.075,38.385,23.321,37.467,22.907,36.75z" fill="#FFFFFF"/><path d="M26.75,40.593c-0.718-0.413-1.635-0.167-2.049,0.549l-4,6.928c-0.415,0.717-0.169,1.635,0.549,2.049   c0.236,0.137,0.494,0.202,0.748,0.202c0.519,0,1.023-0.269,1.3-0.75l4-6.928C27.713,41.925,27.467,41.007,26.75,40.593z" fill="#FFFFFF"/><path d="M37.166,22.551c0.236,0.137,0.494,0.202,0.749,0.202c0.519,0,1.022-0.269,1.3-0.75l4.083-7.072   c0.415-0.717,0.168-1.635-0.549-2.049c-0.718-0.415-1.634-0.169-2.049,0.549l-4.083,7.072   C36.203,21.219,36.449,22.137,37.166,22.551z" fill="#FFFFFF"/></g></svg>