<?xml version="1.0" encoding="utf-8"?>
<!-- Generator: Adobe Illustrator 26.0.1, SVG Export Plug-In . SVG Version: 6.00 Build 0)  -->
<svg version="1.1" id="Layer_3" xmlns="http://www.w3.org/2000/svg" xmlns:xlink="http://www.w3.org/1999/xlink" x="0px" y="0px"
	 viewBox="0 0 1000 800" style="enable-background:new 0 0 1000 800;" xml:space="preserve">
<style type="text/css">
	.st0{fill:#F2C46D;}
</style>
<g id="XMLID_2250_">
	<path id="XMLID_2252_" class="st0" d="M746.92,5.77c3.21,170.34-195.93,147.22-367.36,224.56
		c-127.73,57.62-83.6,207.15-83.6,207.15c0.68-169.38,158.56-81.1,363.5-157.06C864.4,204.47,746.92,5.77,746.92,5.77z"/>
	<path id="XMLID_2251_" class="st0" d="M528.55,380.27c-93.88-1.06-196.35-11.61-206.54,87.96
		C306.82,616.7,455.64,781.41,455.64,781.41s-138.28-254-57.92-318.68c31.28-25.17,137.89,2.9,191.33,1.47
		c114.81-3.09,114.81-136.27,114.81-136.27S669.85,381.87,528.55,380.27z"/>
</g>
</svg>
